<svg width="48" height="48" viewBox="0 0 48 48" fill="none" xmlns="http://www.w3.org/2000/svg">
<rect width="48" height="48" rx="8" fill="#0E1014"/>
<path d="M22.8 36.3335C21.8667 36.3335 20.9945 36.2447 20.1833 36.0669C19.3722 35.8891 18.6222 35.6225 17.9333 35.2669C18.6445 32.6225 19.6167 30.0613 20.85 27.5835C22.0833 25.1058 23.7445 23.0335 25.8333 21.3669C23.3445 22.5669 21.1833 24.2335 19.35 26.3669C17.5167 28.5002 16.2667 30.9225 15.6 33.6335C15.5111 33.5447 15.4278 33.4669 15.35 33.4002C15.2722 33.3335 15.1889 33.2558 15.1 33.1669C14.1 32.1669 13.3333 31.0225 12.8 29.7335C12.2667 28.4447 12 27.0891 12 25.6669C12 24.1335 12.2889 22.6558 12.8667 21.2335C13.4444 19.8113 14.2778 18.5558 15.3667 17.4669C17.0778 15.7113 19.3 14.5725 22.0333 14.0502C24.7667 13.528 28.8555 13.4558 34.3 13.8335C34.7222 19.1225 34.6611 23.178 34.1167 26.0002C33.5722 28.8225 32.4111 31.1225 30.6333 32.9002C29.5667 34.0113 28.3555 34.8613 27 35.4502C25.6445 36.0391 24.2445 36.3335 22.8 36.3335Z" fill="#74BF1E"/>
</svg>
