<svg width="285" height="44" viewBox="0 0 285 44" fill="none" xmlns="http://www.w3.org/2000/svg">
<path d="M20.35 38.9586C19.0667 38.9586 17.8674 38.8364 16.7521 38.592C15.6368 38.3476 14.6055 37.9809 13.6583 37.492C14.6361 33.8559 15.9729 30.3343 17.6687 26.9274C19.3646 23.5205 21.6486 20.6711 24.5208 18.3795C21.0986 20.0295 18.1271 22.3211 15.6062 25.2545C13.0854 28.1878 11.3667 31.5184 10.45 35.2461C10.3278 35.1239 10.2132 35.017 10.1062 34.9253C9.99927 34.8336 9.88469 34.7267 9.7625 34.6045C8.3875 33.2295 7.33333 31.6559 6.6 29.8836C5.86667 28.1114 5.5 26.2476 5.5 24.292C5.5 22.1836 5.89722 20.1517 6.69167 18.1961C7.48611 16.2406 8.63195 14.5142 10.1292 13.017C12.482 10.6031 15.5375 9.03715 19.2958 8.31904C23.0542 7.60102 28.6764 7.50172 36.1625 8.02112C36.743 15.2934 36.6591 20.8698 35.9104 24.7503C35.1618 28.6309 33.5653 31.7934 31.1208 34.2378C29.6542 35.7656 27.9889 36.9343 26.125 37.744C24.2611 38.5538 22.3361 38.9586 20.35 38.9586Z" fill="white"/>
<path d="M52 17.997C52 10.9626 56.8507 6.00493 63.7281 6.00493C69.2765 6.00493 73.4627 9.15369 74.7916 14.2453H68.5455C67.582 12.2355 65.8212 11.2305 63.6616 11.2305C60.1731 11.2305 57.781 13.8433 57.781 17.997C57.781 22.1507 60.1731 24.7635 63.6616 24.7635C65.8212 24.7635 67.582 23.7586 68.5455 21.7488H74.7916C73.4627 26.8404 69.2765 29.9557 63.7281 29.9557C56.8507 29.9557 52 25.0315 52 17.997Z" fill="white"/>
<path d="M78.2708 29.7882V5H83.9521V29.7882H78.2708Z" fill="white"/>
<path d="M96.2424 15.4177C94.3819 15.4177 92.9532 16.5566 92.621 18.6335H99.7309C99.7309 16.5901 98.1362 15.4177 96.2424 15.4177ZM105.113 23.5911C104.216 27.2424 100.927 30.0562 96.3088 30.0562C90.8601 30.0562 86.9397 26.3714 86.9397 20.4424C86.9397 14.5133 90.7937 10.8286 96.3088 10.8286C101.724 10.8286 105.545 14.4463 105.545 20.1409C105.545 20.6768 105.512 21.2463 105.445 21.8158H92.5878C92.7871 24.2611 94.2822 25.4 96.1095 25.4C97.7043 25.4 98.6013 24.5961 99.0664 23.5911H105.113Z" fill="white"/>
<path d="M107.413 20.4089C107.413 14.5133 111.034 10.8286 115.586 10.8286C118.343 10.8286 120.304 12.1015 121.3 13.7429V11.0966H126.982V29.7882H121.3V27.1419C120.27 28.7833 118.31 30.0562 115.553 30.0562C111.034 30.0562 107.413 26.3044 107.413 20.4089ZM121.3 20.4424C121.3 17.4611 119.407 15.8197 117.247 15.8197C115.121 15.8197 113.194 17.4276 113.194 20.4089C113.194 23.3901 115.121 25.065 117.247 25.065C119.407 25.065 121.3 23.4236 121.3 20.4424Z" fill="white"/>
<path d="M143.883 29.7882V19.6384C143.883 17.0926 142.488 15.6857 140.328 15.6857C138.168 15.6857 136.773 17.0926 136.773 19.6384V29.7882H131.092V11.0966H136.773V13.5754C137.903 12.001 139.896 10.8956 142.388 10.8956C146.674 10.8956 149.531 13.8433 149.531 18.868V29.7882H143.883Z" fill="white"/>
<path d="M159.556 17.997C159.556 10.9626 164.407 6.00493 171.284 6.00493C176.833 6.00493 181.019 9.15369 182.348 14.2453H176.102C175.138 12.2355 173.377 11.2305 171.218 11.2305C167.729 11.2305 165.337 13.8433 165.337 17.997C165.337 22.1507 167.729 24.7635 171.218 24.7635C173.377 24.7635 175.138 23.7586 176.102 21.7488H182.348C181.019 26.8404 176.833 29.9557 171.284 29.9557C164.407 29.9557 159.556 25.0315 159.556 17.997Z" fill="white"/>
<path d="M185.827 29.7882V5H191.508V13.6089C192.638 12.001 194.665 10.8956 197.223 10.8956C201.442 10.8956 204.266 13.8433 204.266 18.868V29.7882H198.618V19.6384C198.618 17.0926 197.223 15.6857 195.063 15.6857C192.904 15.6857 191.508 17.0926 191.508 19.6384V29.7882H185.827Z" fill="white"/>
<path d="M207.085 20.4089C207.085 14.5133 210.706 10.8286 215.258 10.8286C218.015 10.8286 219.975 12.1015 220.972 13.7429V11.0966H226.654V29.7882H220.972V27.1419C219.942 28.7833 217.982 30.0562 215.224 30.0562C210.706 30.0562 207.085 26.3044 207.085 20.4089ZM220.972 20.4424C220.972 17.4611 219.078 15.8197 216.919 15.8197C214.793 15.8197 212.866 17.4276 212.866 20.4089C212.866 23.3901 214.793 25.065 216.919 25.065C219.078 25.065 220.972 23.4236 220.972 20.4424Z" fill="white"/>
<path d="M236.445 21.1123V29.7882H230.764V11.0966H236.445V14.2118C237.741 12.2355 239.767 10.8956 242.259 10.8956V16.9586H240.698C238.006 16.9586 236.445 17.8966 236.445 21.1123Z" fill="white"/>
<path d="M243.845 20.4089C243.845 14.5133 247.467 10.8286 252.018 10.8286C254.743 10.8286 256.736 12.068 257.733 13.7429V11.0966H263.414V29.7547C263.414 34.7458 260.557 39 254.145 39C248.629 39 245.041 36.1862 244.543 31.731H250.158C250.523 33.1379 251.919 34.0424 253.879 34.0424C256.038 34.0424 257.733 32.9034 257.733 29.7547V27.1084C256.703 28.7498 254.743 30.0562 252.018 30.0562C247.467 30.0562 243.845 26.3044 243.845 20.4089ZM257.733 20.4424C257.733 17.4611 255.839 15.8197 253.679 15.8197C251.553 15.8197 249.626 17.4276 249.626 20.4089C249.626 23.3901 251.553 25.065 253.679 25.065C255.839 25.065 257.733 23.4236 257.733 20.4424Z" fill="white"/>
<path d="M275.697 15.4177C273.837 15.4177 272.408 16.5566 272.076 18.6335H279.186C279.186 16.5901 277.591 15.4177 275.697 15.4177ZM284.568 23.5911C283.671 27.2424 280.382 30.0562 275.764 30.0562C270.315 30.0562 266.395 26.3714 266.395 20.4424C266.395 14.5133 270.249 10.8286 275.764 10.8286C281.179 10.8286 285 14.4463 285 20.1409C285 20.6768 284.967 21.2463 284.9 21.8158H272.043C272.242 24.2611 273.737 25.4 275.564 25.4C277.159 25.4 278.056 24.5961 278.521 23.5911H284.568Z" fill="white"/>
</svg>
